<svg id="Layer_1" data-name="Layer 1" xmlns="http://www.w3.org/2000/svg" viewBox="0 0 469.72 341.55"><path d="M-440.58,388.36H-448q-181.47,0-362.95,0a39.74,39.74,0,0,1-10.86-1.09c-9.61-2.77-16.08-12.69-15-22.2a21.34,21.34,0,0,1,19.18-19.25,74.67,74.67,0,0,1,7.48-.25q181.23,0,362.45,0h5.78l1.53-2.19c-1.61-.88-3.54-1.43-4.79-2.67q-53.1-52.95-106.13-106c-6.3-6.27-9.37-13.42-7.19-22.1a21.27,21.27,0,0,1,35.68-9.93c10.8,10.41,21.26,21.17,31.87,31.78L-375.66,349.7c11.31,11.32,11.35,23.13.1,34.38q-73,73-146,146.06c-6.54,6.55-13.93,9.6-23,6.82a21.27,21.27,0,0,1-10.2-34c1.26-1.54,2.73-2.92,4.14-4.33L-445.29,393.3C-444,392-442.8,390.69-440.58,388.36Z" transform="translate(836.87 -196.44)"/></svg>