<svg id="Layer_1" data-name="Layer 1" xmlns="http://www.w3.org/2000/svg" viewBox="0 0 426.97 341.57"><path d="M-605.06,336.51h7.32q160,0,320.05,0a41.64,41.64,0,0,1,10.89,1c9.9,2.72,16,12.16,15,22.57a20.8,20.8,0,0,1-18.77,18.94,75.82,75.82,0,0,1-8,.29q-159.78,0-319.56,0H-605c2.06,2.18,3.24,3.49,4.48,4.74q53,53.06,106.11,106.08c6.59,6.56,9.51,14.05,6.92,23.09-3.87,13.53-20.07,19.45-31.91,11.76a39.08,39.08,0,0,1-6-5.19q-72-71.94-143.93-143.92c-12.34-12.34-12.36-23.6-.07-35.9q72.66-72.67,145.32-145.38c6.38-6.39,13.63-9.45,22.59-6.84a21.21,21.21,0,0,1,11.18,33.34,49,49,0,0,1-4.74,5.15Q-547.81,279-600.49,331.7C-601.76,333-603,334.3-605.06,336.51Z" transform="translate(678.69 -186.87)"/></svg>